<svg width="695" height="154" viewBox="0 0 695 154" fill="none" xmlns="http://www.w3.org/2000/svg">
<path d="M2.94407 148.864C1.7494 148.523 1.06674 147.243 0.89607 145.024C0.554737 143.915 0.298737 142.592 0.12807 141.056C0.042737 139.52 7.03186e-05 137.771 7.03186e-05 135.808C7.03186e-05 134.016 0.298737 131.541 0.89607 128.384C1.4934 125.312 2.30407 121.813 3.32807 117.888C4.4374 113.963 5.76007 109.739 7.29607 105.216C8.83207 100.608 10.5387 95.9573 12.4161 91.264C14.7201 85.376 16.7254 80.2986 18.4321 76.032C20.1387 71.68 21.5467 67.9253 22.6561 64.768C23.8507 61.6106 24.7894 59.008 25.4721 56.96C26.2401 54.912 26.8374 53.1626 27.2641 51.712C27.6054 50.688 28.1174 49.4506 28.8001 48C29.4827 46.5493 30.2507 45.0986 31.1041 43.648C32.0427 42.112 32.9814 40.704 33.9201 39.424C34.8587 38.0586 35.7121 37.0346 36.4801 36.352C39.4667 36.7786 42.2827 37.5466 44.9281 38.656C47.5734 39.7653 49.1947 40.832 49.7921 41.856C48.5974 42.9653 47.2321 44.7146 45.6961 47.104C44.1601 49.408 42.6667 51.968 41.2161 54.784C39.7654 57.5146 38.4427 60.3306 37.2481 63.232C36.0534 66.1333 35.1574 68.6933 34.5601 70.912C35.4134 69.4613 36.5227 67.8826 37.8881 66.176C39.2534 64.4693 41.3441 62.1226 44.1601 59.136C47.3174 55.8933 50.2614 53.4186 52.9921 51.712C55.8081 49.92 58.2401 49.024 60.2881 49.024C63.5307 49.024 66.1761 49.92 68.2241 51.712C70.3574 53.504 71.4241 55.808 71.4241 58.624C71.4241 64.768 70.4001 70.8693 68.3521 76.928C66.3041 82.9013 63.3601 88.32 59.5201 93.184C58.0694 95.0613 56.3627 96.8533 54.4001 98.56C52.4374 100.267 50.3894 101.803 48.2561 103.168C46.1227 104.448 44.0321 105.472 41.9841 106.24C39.9361 107.008 38.1014 107.392 36.4801 107.392C34.9441 107.392 33.5787 107.093 32.3841 106.496C31.2747 105.813 30.5067 105.003 30.0801 104.064C33.4081 102.101 36.6507 99.3706 39.8081 95.872C42.9654 92.3733 45.8667 88.3626 48.5121 83.84C51.2427 79.232 53.5894 74.2826 55.5521 68.992C57.6001 63.7013 59.1361 58.3253 60.1601 52.864C56.9174 54.5706 53.9734 56.448 51.3281 58.496C48.7681 60.4586 46.2081 63.0613 43.6481 66.304C40.5761 70.0586 38.1441 73.088 36.3521 75.392C34.5601 77.696 33.0667 79.6586 31.8721 81.28C30.7627 82.9013 29.8241 84.4373 29.0561 85.888C28.3734 87.2533 27.6054 88.96 26.7521 91.008C25.5574 93.7386 24.1494 97.3653 22.5281 101.888C20.9921 106.325 19.3707 111.317 17.6641 116.864C16.0427 122.411 14.3787 128.299 12.6721 134.528C11.0507 140.843 9.47207 147.115 7.93607 153.344C6.9974 153.173 6.18674 152.491 5.50407 151.296C4.8214 150.528 4.3094 149.973 3.96807 149.632C3.71207 149.291 3.37074 149.035 2.94407 148.864ZM76.1661 97.92C76.1661 97.152 76.2087 96.2133 76.2941 95.104C76.4647 93.9093 76.7207 92.3733 77.0621 90.496C77.4034 88.5333 77.8301 86.1866 78.3421 83.456C78.9394 80.7253 79.6647 77.44 80.5181 73.6C80.6887 72.7466 81.0727 71.3813 81.6701 69.504C82.2674 67.6266 83.0354 65.664 83.9741 63.616C84.9981 61.4826 86.1927 59.4346 87.5581 57.472C89.0087 55.5093 90.7154 54.0586 92.6781 53.12C94.1287 53.4613 96.0487 54.3573 98.4381 55.808C100.827 57.1733 102.875 59.0933 104.582 61.568C102.619 63.7866 100.955 66.0053 99.5901 68.224C98.3101 70.4426 97.1154 72.7466 96.0061 75.136C94.9821 77.5253 94.0007 80 93.0621 82.56C92.2087 85.12 91.2274 87.808 90.1181 90.624C89.1794 93.0133 88.3261 95.488 87.5581 98.048C86.7901 100.523 86.3634 102.699 86.2781 104.576C86.2781 106.112 86.2354 107.179 86.1501 107.776C86.1501 108.459 85.9367 108.8 85.5101 108.8C85.1687 108.8 84.4861 108.587 83.4621 108.16C82.4381 107.733 81.3714 107.093 80.2621 106.24C79.2381 105.301 78.2994 104.149 77.4461 102.784C76.5927 101.419 76.1661 99.7973 76.1661 97.92ZM100.614 42.368C100.614 41.856 100.742 41.088 100.998 40.064C100.571 39.6373 100.187 38.9973 99.8461 38.144C99.5901 37.2906 99.4621 36.5226 99.4621 35.84C99.4621 35.072 99.5474 34.048 99.7181 32.768C99.9741 31.4026 100.273 29.952 100.614 28.416C100.955 26.88 101.382 25.3013 101.894 23.68C102.406 21.9733 102.918 20.4373 103.43 19.072C104.454 19.072 105.691 19.3706 107.142 19.968C108.678 20.48 110.214 21.2053 111.75 22.144C113.286 22.9973 114.694 23.9786 115.974 25.088C117.254 26.112 118.235 27.0933 118.918 28.032C117.979 28.9706 116.742 30.2933 115.206 32C113.67 33.6213 112.177 35.3706 110.726 37.248C109.275 39.04 107.953 40.7466 106.758 42.368C105.563 43.9893 104.795 45.1413 104.454 45.824C103.43 45.6533 102.534 45.2266 101.766 44.544C100.998 43.776 100.614 43.0506 100.614 42.368ZM127.024 44.416C129.243 45.0986 131.333 46.6346 133.296 49.024C135.259 51.328 136.709 53.888 137.648 56.704C136.709 59.008 135.259 61.7813 133.296 65.024C131.333 68.2666 129.371 71.5946 127.408 75.008C125.445 78.336 123.653 81.536 122.032 84.608C120.496 87.5946 119.6 90.0693 119.344 92.032C120.709 90.5813 122.203 88.9173 123.824 87.04C125.531 85.0773 127.152 83.1573 128.688 81.28C130.309 79.3173 131.803 77.568 133.168 76.032C134.533 74.4106 135.6 73.216 136.368 72.448C137.989 70.7413 139.909 68.7786 142.128 66.56C144.347 64.256 146.651 62.1226 149.04 60.16C151.515 58.112 153.989 56.4053 156.464 55.04C158.939 53.5893 161.2 52.864 163.248 52.864C165.467 52.864 167.301 53.632 168.752 55.168C170.288 56.6186 171.483 58.1546 172.336 59.776C172.336 59.9466 171.995 60.2026 171.312 60.544C170.715 60.8 169.819 61.6106 168.624 62.976C167.429 64.512 166.064 66.6453 164.528 69.376C163.077 72.0213 161.627 74.9226 160.176 78.08C158.811 81.152 157.659 84.3093 156.72 87.552C155.781 90.7946 155.312 93.7386 155.312 96.384C155.312 98.5173 155.568 99.8826 156.08 100.48C156.677 101.077 157.488 101.376 158.512 101.376C159.451 101.376 160.432 101.163 161.456 100.736C162.48 100.309 163.291 100.096 163.888 100.096C164.229 100.267 164.485 100.651 164.656 101.248C164.912 101.76 165.04 102.229 165.04 102.656C164.357 103.253 163.547 103.851 162.608 104.448C161.669 105.045 160.688 105.6 159.664 106.112C158.64 106.624 157.616 107.051 156.592 107.392C155.653 107.733 154.8 107.904 154.032 107.904C151.557 107.904 149.509 107.52 147.888 106.752C146.352 106.069 145.115 105.131 144.176 103.936C143.323 102.741 142.725 101.333 142.384 99.712C142.043 98.0053 141.872 96.2133 141.872 94.336C141.872 93.312 141.957 92.16 142.128 90.88C142.299 89.6 142.64 88.1066 143.152 86.4C143.664 84.608 144.389 82.5173 145.328 80.128C146.267 77.6533 147.461 74.7093 148.912 71.296C148.741 71.296 147.589 71.8933 145.456 73.088C143.323 74.2826 141.019 76.1173 138.544 78.592C134.533 82.432 130.907 86.2293 127.664 89.984C124.507 93.7386 121.264 97.92 117.936 102.528C116.059 105.173 114.395 107.392 112.944 109.184C111.579 111.061 110.384 112.299 109.36 112.896C107.568 111.872 106.245 110.421 105.392 108.544C104.539 106.752 103.899 104.875 103.472 102.912C103.472 101.291 103.685 99.2426 104.112 96.768C104.624 94.2933 105.264 91.5626 106.032 88.576C106.885 85.504 107.909 82.304 109.104 78.976C110.299 75.648 111.621 72.32 113.072 68.992C116.315 61.4826 119.259 55.5946 121.904 51.328C124.635 47.0613 126.341 44.7573 127.024 44.416ZM175.669 94.464C175.669 91.392 176.437 87.1253 177.973 81.664C179.594 76.2026 181.685 70.2293 184.245 63.744C186.805 57.2586 189.706 50.56 192.949 43.648C196.192 36.736 199.434 30.2933 202.677 24.32C206.005 18.3466 209.162 13.184 212.149 8.83197C215.221 4.47997 217.824 1.53597 219.957 -3.05176e-05C221.152 0.0853017 222.432 0.5973 223.797 1.53596C225.248 2.47463 226.57 3.62664 227.765 4.99197C228.96 6.27197 229.941 7.6373 230.709 9.08797C231.562 10.5386 231.989 11.8613 231.989 13.056C228.149 16.128 224.224 20.096 220.213 24.96C216.288 29.7386 212.533 35.0293 208.949 40.832C205.365 46.5493 202.037 52.6506 198.965 59.136C195.978 65.536 193.461 71.8506 191.413 78.08C194.144 73.3866 197.002 69.12 199.989 65.28C202.976 61.44 205.962 58.1546 208.949 55.424C211.936 52.6933 214.837 50.6026 217.653 49.152C220.554 47.616 223.285 46.8053 225.845 46.72C229.6 49.4506 231.477 53.0773 231.477 57.6C231.477 60.3306 230.922 63.104 229.813 65.92C228.704 68.6506 227.21 71.2106 225.333 73.6C223.541 75.904 221.45 77.9093 219.061 79.616C216.757 81.2373 214.325 82.304 211.765 82.816C212.618 85.8026 213.685 88.832 214.965 91.904C216.33 94.976 217.909 97.9626 219.701 100.864C221.578 103.765 223.669 106.453 225.973 108.928C228.362 111.403 231.05 113.493 234.037 115.2C233.61 116.053 232.97 116.907 232.117 117.76C231.264 118.613 230.24 119.339 229.045 119.936C227.85 120.619 226.528 121.131 225.077 121.472C223.712 121.899 222.346 122.112 220.981 122.112C218.677 122.112 216.501 120.96 214.453 118.656C212.49 116.352 210.698 113.024 209.077 108.672C207.797 105.173 206.56 100.992 205.365 96.128C204.17 91.264 203.104 86.1866 202.165 80.896C203.36 80.128 204.853 79.0186 206.645 77.568C208.437 76.032 210.314 74.2826 212.277 72.32C219.786 65.0666 223.541 58.7946 223.541 53.504C223.541 52.8213 223.072 52.48 222.133 52.48C220.426 52.5653 218.421 53.376 216.117 54.912C213.813 56.448 211.338 58.5813 208.693 61.312C206.133 64.0426 203.488 67.2426 200.757 70.912C198.112 74.5813 195.552 78.5493 193.077 82.816C192.053 84.5226 191.114 86.4853 190.261 88.704C189.408 90.9226 188.64 93.2266 187.957 95.616C187.36 97.92 186.89 100.224 186.549 102.528C186.208 104.832 186.037 106.965 186.037 108.928C186.037 110.123 186.165 111.104 186.421 111.872C183.776 111.616 182.154 110.933 181.557 109.824C180.874 108.8 180.277 107.947 179.765 107.264C179.338 106.667 178.869 106.155 178.357 105.728C177.589 105.131 176.949 103.851 176.437 101.888C175.925 99.9253 175.669 97.4506 175.669 94.464ZM513.942 46.72C515.649 46.72 517.611 47.232 519.83 48.256C522.049 49.28 524.011 50.6026 525.718 52.224C525.291 48.8106 524.737 45.6106 524.054 42.624C523.457 39.552 522.518 36.3946 521.238 33.152C520.043 29.9093 518.422 26.368 516.374 22.528C514.326 18.688 511.766 14.2933 508.694 9.34396C508.95 8.57597 509.505 7.67997 510.358 6.65597C511.297 5.63197 512.321 4.6933 513.43 3.83997C514.625 2.9013 515.819 2.09063 517.014 1.40797C518.294 0.725299 519.489 0.298632 520.598 0.127968C522.987 2.7733 525.249 6.1013 527.382 10.112C529.515 14.0373 531.393 18.304 533.014 22.912C534.635 27.4346 535.873 32.128 536.726 36.992C537.665 41.856 538.134 46.5066 538.134 50.944C538.134 55.3813 537.622 59.9466 536.598 64.64C535.659 69.3333 534.294 73.9413 532.502 78.464C530.795 82.9013 528.79 87.1253 526.486 91.136C524.182 95.1466 521.665 98.7306 518.934 101.888C516.289 105.045 513.515 107.605 510.614 109.568C507.713 111.616 504.811 112.896 501.91 113.408C496.022 112.725 491.499 110.805 488.342 107.648C485.27 104.576 483.734 100.309 483.734 94.848C483.734 91.9466 484.161 88.7893 485.014 85.376C485.953 81.9626 487.147 78.592 488.598 75.264C490.134 71.8506 491.883 68.5653 493.846 65.408C495.894 62.1653 498.027 59.264 500.246 56.704C502.55 54.144 504.854 51.968 507.158 50.176C509.462 48.384 511.723 47.232 513.942 46.72ZM500.886 108.288C503.873 107.264 506.859 105.003 509.846 101.504C512.833 98.0053 515.521 93.9093 517.91 89.216C520.299 84.4373 522.219 79.36 523.67 73.984C525.206 68.5226 525.974 63.2746 525.974 58.24C525.974 56.7893 525.974 55.8933 525.974 55.552C525.974 55.2106 525.931 54.8693 525.846 54.528C523.798 55.3813 521.622 56.832 519.318 58.88C517.014 60.928 514.71 63.3173 512.406 66.048C510.102 68.6933 507.926 71.5946 505.878 74.752C503.83 77.9093 501.995 81.0666 500.374 84.224C498.753 87.3813 497.473 90.4106 496.534 93.312C495.595 96.2133 495.126 98.7733 495.126 100.992C495.126 105.259 497.046 107.691 500.886 108.288ZM587.237 53.504C586.896 58.7946 585.957 63.36 584.421 67.2C582.885 70.9546 580.666 74.2826 577.765 77.184C574.949 80 571.493 82.56 567.397 84.864C563.301 87.168 558.522 89.3866 553.061 91.52C553.061 92.032 553.018 92.5866 552.933 93.184C552.933 93.696 552.933 94.2506 552.933 94.848C552.933 95.9573 553.018 97.1093 553.189 98.304C553.36 99.4986 553.658 100.608 554.085 101.632C554.512 102.656 555.109 103.509 555.877 104.192C556.645 104.789 557.626 105.088 558.821 105.088C561.125 105.088 563.386 104.576 565.605 103.552C567.824 102.528 569.914 101.291 571.877 99.84C573.925 98.304 575.802 96.6826 577.509 94.976C579.301 93.184 580.88 91.5626 582.245 90.112C583.098 90.88 583.824 91.6053 584.421 92.288C580.581 97.408 576.357 101.675 571.749 105.088C567.226 108.416 562.917 110.549 558.821 111.488C552.933 110.805 548.325 108.672 544.997 105.088C541.754 101.419 540.133 97.024 540.133 91.904C540.133 88.4053 540.602 84.864 541.541 81.28C542.565 77.6106 543.93 74.112 545.637 70.784C547.429 67.3706 549.477 64.1706 551.781 61.184C554.17 58.1973 556.688 55.5946 559.333 53.376C562.064 51.1573 564.837 49.408 567.653 48.128C570.554 46.848 573.413 46.208 576.229 46.208C580.154 46.72 583.824 49.152 587.237 53.504ZM578.405 57.728C576.101 58.0693 573.712 59.008 571.237 60.544C568.762 62.08 566.416 64.128 564.197 66.688C562.064 69.248 560.101 72.2346 558.309 75.648C556.517 79.0613 555.109 82.7306 554.085 86.656C560.912 83.2426 566.586 79.0613 571.109 74.112C575.632 69.0773 578.064 63.616 578.405 57.728ZM638.987 53.504C638.646 58.7946 637.707 63.36 636.171 67.2C634.635 70.9546 632.416 74.2826 629.515 77.184C626.699 80 623.243 82.56 619.147 84.864C615.051 87.168 610.272 89.3866 604.811 91.52C604.811 92.032 604.768 92.5866 604.683 93.184C604.683 93.696 604.683 94.2506 604.683 94.848C604.683 95.9573 604.768 97.1093 604.939 98.304C605.11 99.4986 605.408 100.608 605.835 101.632C606.262 102.656 606.859 103.509 607.627 104.192C608.395 104.789 609.376 105.088 610.571 105.088C612.875 105.088 615.136 104.576 617.355 103.552C619.574 102.528 621.664 101.291 623.627 99.84C625.675 98.304 627.552 96.6826 629.259 94.976C631.051 93.184 632.63 91.5626 633.995 90.112C634.848 90.88 635.574 91.6053 636.171 92.288C632.331 97.408 628.107 101.675 623.499 105.088C618.976 108.416 614.667 110.549 610.571 111.488C604.683 110.805 600.075 108.672 596.747 105.088C593.504 101.419 591.883 97.024 591.883 91.904C591.883 88.4053 592.352 84.864 593.291 81.28C594.315 77.6106 595.68 74.112 597.387 70.784C599.179 67.3706 601.227 64.1706 603.531 61.184C605.92 58.1973 608.438 55.5946 611.083 53.376C613.814 51.1573 616.587 49.408 619.403 48.128C622.304 46.848 625.163 46.208 627.979 46.208C631.904 46.72 635.574 49.152 638.987 53.504ZM630.155 57.728C627.851 58.0693 625.462 59.008 622.987 60.544C620.512 62.08 618.166 64.128 615.947 66.688C613.814 69.248 611.851 72.2346 610.059 75.648C608.267 79.0613 606.859 82.7306 605.835 86.656C612.662 83.2426 618.336 79.0613 622.859 74.112C627.382 69.0773 629.814 63.616 630.155 57.728ZM641.841 103.936C642.268 101.461 642.993 98.2186 644.017 94.208C645.126 90.112 646.406 85.8026 647.857 81.28C649.308 76.672 650.844 72.064 652.465 67.456C654.086 62.848 655.665 58.7093 657.201 55.04C658.31 52.3946 659.292 50.3466 660.145 48.896C660.998 47.36 661.937 46.08 662.961 45.056C664.156 45.2266 665.393 45.5253 666.673 45.952C667.953 46.3786 669.19 46.8906 670.385 47.488C671.58 48.0853 672.646 48.7253 673.585 49.408C674.524 50.0053 675.249 50.6026 675.761 51.2C673.457 53.9306 671.409 57.0453 669.617 60.544C667.91 64.0426 666.161 68.5226 664.369 73.984C668.977 69.888 673.03 65.9626 676.529 62.208C680.113 58.4533 683.441 54.272 686.513 49.664C687.025 49.2373 687.921 49.024 689.201 49.024C690.396 49.024 691.548 49.2373 692.657 49.664C693.766 50.0053 694.534 50.5173 694.961 51.2C693.425 55.296 692.657 59.3493 692.657 63.36C692.657 67.1146 693.212 69.9306 694.321 71.808C694.236 72.32 693.638 73.3013 692.529 74.752C691.505 76.2026 690.353 77.568 689.073 78.848C686.769 77.6533 684.721 76.032 682.929 73.984C681.137 71.8506 679.814 69.5466 678.961 67.072C674.95 69.888 671.537 72.6613 668.721 75.392C665.905 78.0373 663.473 81.024 661.425 84.352C659.462 87.5946 657.756 91.3493 656.305 95.616C654.94 99.8826 653.617 104.96 652.337 110.848C651.569 110.763 650.63 110.464 649.521 109.952C648.497 109.525 647.43 108.971 646.321 108.288C645.297 107.605 644.358 106.88 643.505 106.112C642.652 105.344 642.097 104.619 641.841 103.936Z" fill="#C0284A"/>
<path d="M271.785 98.304C271.785 94.5493 272.681 89.3013 274.473 82.56C276.265 75.7333 278.782 67.7973 282.025 58.752C287.316 44.3306 292.265 32.3413 296.873 22.784C301.566 13.1413 306.132 5.63197 310.569 0.255966C311.593 0.426631 312.83 0.853297 314.281 1.53596C315.817 2.21863 317.31 2.98663 318.761 3.83997C320.212 4.60797 321.492 5.41863 322.601 6.27197C323.796 7.1253 324.564 7.80797 324.905 8.31997C318.249 16.1706 312.404 24.6186 307.369 33.664C302.334 42.7093 297.726 53.0773 293.545 64.768C289.961 74.8373 287.23 83.9253 285.353 92.032C283.476 100.053 282.537 106.752 282.537 112.128C282.537 113.579 282.537 114.475 282.537 114.816C282.537 115.157 282.58 115.499 282.665 115.84C281.47 115.669 280.446 115.371 279.593 114.944C278.74 114.517 278.185 114.005 277.929 113.408C277.758 112.981 277.289 112.341 276.521 111.488C275.753 110.72 275.07 110.123 274.473 109.696C273.705 109.184 273.065 107.861 272.553 105.728C272.041 103.509 271.785 101.035 271.785 98.304ZM302.291 97.92C302.291 97.152 302.334 96.2133 302.419 95.104C302.59 93.9093 302.846 92.3733 303.187 90.496C303.528 88.5333 303.955 86.1866 304.467 83.456C305.064 80.7253 305.79 77.44 306.643 73.6C306.814 72.7466 307.198 71.3813 307.795 69.504C308.392 67.6266 309.16 65.664 310.099 63.616C311.123 61.4826 312.318 59.4346 313.683 57.472C315.134 55.5093 316.84 54.0586 318.803 53.12C320.254 53.4613 322.174 54.3573 324.563 55.808C326.952 57.1733 329 59.0933 330.707 61.568C328.744 63.7866 327.08 66.0053 325.715 68.224C324.435 70.4426 323.24 72.7466 322.131 75.136C321.107 77.5253 320.126 80 319.187 82.56C318.334 85.12 317.352 87.808 316.243 90.624C315.304 93.0133 314.451 95.488 313.683 98.048C312.915 100.523 312.488 102.699 312.403 104.576C312.403 106.112 312.36 107.179 312.275 107.776C312.275 108.459 312.062 108.8 311.635 108.8C311.294 108.8 310.611 108.587 309.587 108.16C308.563 107.733 307.496 107.093 306.387 106.24C305.363 105.301 304.424 104.149 303.571 102.784C302.718 101.419 302.291 99.7973 302.291 97.92ZM326.739 42.368C326.739 41.856 326.867 41.088 327.123 40.064C326.696 39.6373 326.312 38.9973 325.971 38.144C325.715 37.2906 325.587 36.5226 325.587 35.84C325.587 35.072 325.672 34.048 325.843 32.768C326.099 31.4026 326.398 29.952 326.739 28.416C327.08 26.88 327.507 25.3013 328.019 23.68C328.531 21.9733 329.043 20.4373 329.555 19.072C330.579 19.072 331.816 19.3706 333.267 19.968C334.803 20.48 336.339 21.2053 337.875 22.144C339.411 22.9973 340.819 23.9786 342.099 25.088C343.379 26.112 344.36 27.0933 345.043 28.032C344.104 28.9706 342.867 30.2933 341.331 32C339.795 33.6213 338.302 35.3706 336.851 37.248C335.4 39.04 334.078 40.7466 332.883 42.368C331.688 43.9893 330.92 45.1413 330.579 45.824C329.555 45.6533 328.659 45.2266 327.891 44.544C327.123 43.776 326.739 43.0506 326.739 42.368ZM332.285 98.304C332.285 94.5493 333.181 89.3013 334.973 82.56C336.765 75.7333 339.282 67.7973 342.525 58.752C347.816 44.3306 352.765 32.3413 357.373 22.784C362.066 13.1413 366.632 5.63197 371.069 0.255966C372.093 0.426631 373.33 0.853297 374.781 1.53596C376.317 2.21863 377.81 2.98663 379.261 3.83997C380.712 4.60797 381.992 5.41863 383.101 6.27197C384.296 7.1253 385.064 7.80797 385.405 8.31997C378.749 16.1706 372.904 24.6186 367.869 33.664C362.834 42.7093 358.226 53.0773 354.045 64.768C350.461 74.8373 347.73 83.9253 345.853 92.032C343.976 100.053 343.037 106.752 343.037 112.128C343.037 113.579 343.037 114.475 343.037 114.816C343.037 115.157 343.08 115.499 343.165 115.84C341.97 115.669 340.946 115.371 340.093 114.944C339.24 114.517 338.685 114.005 338.429 113.408C338.258 112.981 337.789 112.341 337.021 111.488C336.253 110.72 335.57 110.123 334.973 109.696C334.205 109.184 333.565 107.861 333.053 105.728C332.541 103.509 332.285 101.035 332.285 98.304ZM362.791 97.92C362.791 97.152 362.834 96.2133 362.919 95.104C363.09 93.9093 363.346 92.3733 363.687 90.496C364.028 88.5333 364.455 86.1866 364.967 83.456C365.564 80.7253 366.29 77.44 367.143 73.6C367.314 72.7466 367.698 71.3813 368.295 69.504C368.892 67.6266 369.66 65.664 370.599 63.616C371.623 61.4826 372.818 59.4346 374.183 57.472C375.634 55.5093 377.34 54.0586 379.303 53.12C380.754 53.4613 382.674 54.3573 385.063 55.808C387.452 57.1733 389.5 59.0933 391.207 61.568C389.244 63.7866 387.58 66.0053 386.215 68.224C384.935 70.4426 383.74 72.7466 382.631 75.136C381.607 77.5253 380.626 80 379.687 82.56C378.834 85.12 377.852 87.808 376.743 90.624C375.804 93.0133 374.951 95.488 374.183 98.048C373.415 100.523 372.988 102.699 372.903 104.576C372.903 106.112 372.86 107.179 372.775 107.776C372.775 108.459 372.562 108.8 372.135 108.8C371.794 108.8 371.111 108.587 370.087 108.16C369.063 107.733 367.996 107.093 366.887 106.24C365.863 105.301 364.924 104.149 364.071 102.784C363.218 101.419 362.791 99.7973 362.791 97.92ZM387.239 42.368C387.239 41.856 387.367 41.088 387.623 40.064C387.196 39.6373 386.812 38.9973 386.471 38.144C386.215 37.2906 386.087 36.5226 386.087 35.84C386.087 35.072 386.172 34.048 386.343 32.768C386.599 31.4026 386.898 29.952 387.239 28.416C387.58 26.88 388.007 25.3013 388.519 23.68C389.031 21.9733 389.543 20.4373 390.055 19.072C391.079 19.072 392.316 19.3706 393.767 19.968C395.303 20.48 396.839 21.2053 398.375 22.144C399.911 22.9973 401.319 23.9786 402.599 25.088C403.879 26.112 404.86 27.0933 405.543 28.032C404.604 28.9706 403.367 30.2933 401.831 32C400.295 33.6213 398.802 35.3706 397.351 37.248C395.9 39.04 394.578 40.7466 393.383 42.368C392.188 43.9893 391.42 45.1413 391.079 45.824C390.055 45.6533 389.159 45.2266 388.391 44.544C387.623 43.776 387.239 43.0506 387.239 42.368ZM441.041 86.656C439.078 92.8853 437.116 98.56 435.153 103.68C433.19 108.8 431.1 113.493 428.881 117.76C426.662 122.112 424.273 126.08 421.713 129.664C419.153 133.333 416.337 136.789 413.265 140.032C409.34 144.128 405.286 147.243 401.105 149.376C396.924 151.595 392.742 152.704 388.561 152.704C386.428 152.704 384.294 152.448 382.161 151.936C380.113 151.509 378.193 150.869 376.401 150.016C374.524 149.248 372.902 148.309 371.537 147.2C370.086 146.176 369.062 145.067 368.465 143.872C368.465 142.848 369.062 141.952 370.257 141.184C371.281 142.123 372.134 142.848 372.817 143.36C373.5 143.872 374.182 144.299 374.865 144.64C375.462 144.981 376.145 145.195 376.913 145.28C377.596 145.365 378.406 145.408 379.345 145.408C384.209 145.408 388.945 143.957 393.553 141.056C398.246 138.24 402.641 134.187 406.737 128.896C410.918 123.691 414.716 117.333 418.129 109.824C421.542 102.4 424.444 94.08 426.833 84.864C425.724 86.5706 424.358 88.6613 422.737 91.136C421.116 93.6106 419.324 96.0853 417.361 98.56C415.398 100.949 413.35 103.125 411.217 105.088C409.169 107.051 407.164 108.373 405.201 109.056C403.836 108.971 402.385 108.672 400.849 108.16C399.398 107.733 397.99 107.093 396.625 106.24C395.345 105.387 394.193 104.363 393.169 103.168C392.145 101.973 391.462 100.608 391.121 99.072C391.121 96.5973 391.206 94.6346 391.377 93.184C391.548 91.648 391.846 89.984 392.273 88.192C393.041 84.9493 394.15 81.28 395.601 77.184C397.137 73.088 398.886 69.0773 400.849 65.152C402.897 61.1413 405.116 57.4293 407.505 54.016C409.98 50.5173 412.54 47.7866 415.185 45.824C415.868 45.824 416.721 45.9093 417.745 46.08C418.769 46.1653 419.836 46.3786 420.945 46.72C422.054 47.0613 423.121 47.488 424.145 48C425.169 48.4266 426.065 49.024 426.833 49.792C425.894 50.6453 423.846 53.504 420.689 58.368C417.532 63.232 414.033 70.2293 410.193 79.36C409.766 80.2986 409.254 81.664 408.657 83.456C408.06 85.248 407.462 87.1253 406.865 89.088C406.353 91.0506 405.884 92.9706 405.457 94.848C405.03 96.7253 404.817 98.2186 404.817 99.328C404.817 100.011 404.902 100.523 405.073 100.864C405.329 101.205 405.542 101.461 405.713 101.632C407.249 101.376 409.297 100.139 411.857 97.92C414.417 95.616 417.318 92.0746 420.561 87.296C422.609 84.224 424.486 81.1946 426.193 78.208C427.9 75.136 429.564 72.064 431.185 68.992C432.892 65.92 434.641 62.7626 436.433 59.52C438.225 56.2773 440.145 52.9493 442.193 49.536C443.302 49.536 444.497 49.664 445.777 49.92C447.057 50.176 448.294 50.5173 449.489 50.944C450.684 51.2853 451.708 51.712 452.561 52.224C453.5 52.6506 454.182 53.12 454.609 53.632C451.964 59.264 449.489 64.768 447.185 70.144C444.881 75.52 442.833 81.024 441.041 86.656Z" fill="#DC768C"/>
</svg>
